<?xml version="1.0" encoding="UTF-8" standalone="no" ?>
<!DOCTYPE svg PUBLIC "-//W3C//DTD SVG 1.1//EN" "http://www.w3.org/Graphics/SVG/1.1/DTD/svg11.dtd">
<svg xmlns="http://www.w3.org/2000/svg" xmlns:xlink="http://www.w3.org/1999/xlink" version="1.1" width="1080" height="1080" viewBox="0 0 1080 1080" xml:space="preserve">

<defs>
    <style type="text/css">
        @import url('https://fonts.googleapis.com/css2?family=IBM+Plex+Mono:ital,wght@0,100;0,200;0,300;0,400;0,500;0,600;0,700;1,100;1,200;1,300;1,400;1,500;1,600;1,700');
    </style>
    <clipPath id="svg-clip">
        <circle cx="540" cy="540" r="500"/>
    </clipPath>
</defs>

<circle 
    style="fill: rgb(52,180,235)"
    cx="540" cy="540" r="500"
/>
<rect
    style="fill: rgb(44, 152, 199)" 
    x="-270" y="420" width="1200" height="1200" rx="210" ry="210"
    clip-path="url(#svg-clip)"
/>

    <g 
        fill="#ffffff" transform="translate(87 396)"
    >
        <path d="M 291.84 236.8 L 291.84 207.68 L 290.24 207.68 Q 284.8 221.12 273.44 230.88 A 37.872 37.872 0 0 1 259.136 238.423 Q 253.459 240.077 246.67 240.497 A 76.968 76.968 0 0 1 241.92 240.64 A 59.497 59.497 0 0 1 223.023 237.764 A 49.37 49.37 0 0 1 202.4 224.48 A 52.379 52.379 0 0 1 190.54 203.381 Q 188.087 195.273 187.436 185.515 A 109.237 109.237 0 0 1 187.2 178.24 L 187.2 71.68 L 228.16 71.68 L 228.16 172.48 A 60.194 60.194 0 0 0 229.541 186.005 Q 233.833 204.545 251.465 207.681 A 44.189 44.189 0 0 0 259.2 208.32 Q 265.28 208.32 271.2 206.72 A 32.758 32.758 0 0 0 279.822 203.052 A 30.247 30.247 0 0 0 281.76 201.76 Q 286.4 198.4 289.12 193.6 A 20.398 20.398 0 0 0 291.391 187.223 A 28.11 28.11 0 0 0 291.84 182.08 L 291.84 71.68 L 332.8 71.68 L 332.8 236.8 L 291.84 236.8 Z M 380.8 236.8 L 380.8 204.48 L 421.76 204.48 L 421.76 104 L 380.8 104 L 380.8 71.68 L 462.72 71.68 L 462.72 116.8 L 465.28 116.8 Q 467.52 108.16 471.52 100 Q 475.52 91.84 481.76 85.6 Q 488 79.36 496.96 75.52 Q 505.29 71.95 516.662 71.699 A 78.745 78.745 0 0 1 518.4 71.68 L 536.32 71.68 L 536.32 110.08 L 502.4 110.08 Q 483.84 110.08 473.28 120.96 Q 462.72 131.84 462.72 148.8 L 462.72 204.48 L 520 204.48 L 520 236.8 L 380.8 236.8 Z M 571.84 236.8 L 571.84 204.48 L 624.32 204.48 L 624.32 32.32 L 571.84 32.32 L 571.84 0 L 665.28 0 L 665.28 204.48 L 718.08 204.48 L 718.08 236.8 L 571.84 236.8 Z M 0 233.92 L 0 194.88 L 100.48 140.48 L 100.48 137.92 L 0 83.52 L 0 44.48 L 137.6 120 L 137.6 158.4 L 0 233.92 Z M 905.6 233.92 L 768 158.4 L 768 120 L 905.6 44.48 L 905.6 83.52 L 805.12 137.92 L 805.12 140.48 L 905.6 194.88 L 905.6 233.92 Z" vector-effect="non-scaling-stroke"/>
    </g>


</svg>
